<?xml version="1.0" encoding="UTF-8"?>
<svg width="169px" height="56px" viewBox="0 0 169 56" version="1.1" xmlns="http://www.w3.org/2000/svg" xmlns:xlink="http://www.w3.org/1999/xlink">
    <!-- Generator: Sketch 63.1 (92452) - https://sketch.com -->
    <title>bidding_upload</title>
    <desc>Created with Sketch.</desc>
    <g id="后台" stroke="none" stroke-width="1" fill="none" fill-rule="evenodd">
        <g id="4.1.2招标管理-上传招标通告" transform="translate(-415.000000, -1128.000000)">
            <g id="编组-5" transform="translate(254.000000, 90.000000)">
                <g id="编组-3" transform="translate(65.000000, 498.000000)">
                    <g id="编组-4备份-2" transform="translate(3.000000, 540.000000)">
                        <g id="bidding_upload" transform="translate(94.000000, 0.000000)">
                            <g id="云上传">
                                <rect id="矩形" fill="#000000" fill-rule="nonzero" opacity="0" x="22" y="0" width="46" height="46"></rect>
                                <rect id="矩形" stroke="#9FB7BF" fill="#F8F8F8" x="0" y="1" width="167" height="54" rx="8"></rect>
                                <path d="M48.911183,24.7511392 C47.8322582,19.2239748 43.2044735,15 37.5022223,15 C33.0304804,15 29.1784514,17.6018226 27.3282292,21.5022783 C22.5444016,22.1493165 19,26.21381 19,31.2534175 C19,36.616544 23.1641146,41 28.2511111,41 L48.29147,41 C52.6071691,41 56,37.4230634 56,32.8755696 C56.0044446,28.6515948 52.7676703,25.0746583 48.911183,24.7511392 Z M40.5874121,29.3669821 L40.5874121,35.2769015 C40.5874121,35.6049772 40.3288269,35.8692604 40.0078244,35.8692604 L34.9966201,35.8692604 C34.6756177,35.8692604 34.4170325,35.6049772 34.4170325,35.2769015 L34.4170325,29.3669821 L31.1579663,29.3669821 C30.6452541,29.3669821 30.3866689,28.7381703 30.7433382,28.3645286 L37.0875942,21.679986 C37.3149709,21.4384858 37.6894737,21.4384858 37.9168504,21.679986 L44.2611064,28.3645286 C44.6177757,28.7381703 44.3547321,29.3669821 43.8464783,29.3669821 L40.5874121,29.3669821 L40.5874121,29.3669821 Z" id="形状" fill="#1DACDD" fill-rule="nonzero"></path>
                            </g>
                            <text id="上传到网盘" font-family="PingFangSC-Semibold, PingFang SC" font-size="16" font-weight="500" fill="#637075">
                                <tspan x="70" y="34">上传到网盘</tspan>
                            </text>
                        </g>
                    </g>
                </g>
            </g>
        </g>
    </g>
</svg>