<?xml version="1.0" encoding="UTF-8"?>
<svg width="23px" height="23px" viewBox="0 0 23 23" version="1.1" xmlns="http://www.w3.org/2000/svg" xmlns:xlink="http://www.w3.org/1999/xlink">
    <!-- Generator: Sketch 63.1 (92452) - https://sketch.com -->
    <title>bidding_icon1</title>
    <desc>Created with Sketch.</desc>
    <g id="后台" stroke="none" stroke-width="1" fill="none" fill-rule="evenodd">
        <g id="4.2.3招标管理-报名信息查询-班组详情" transform="translate(-320.000000, -212.000000)" fill-rule="nonzero">
            <g id="bidding_icon1" transform="translate(318.000000, 210.000000)">
                <rect id="矩形" fill="#000000" opacity="0" x="0" y="0" width="27" height="27"></rect>
                <path d="M2.76095603,14.281865 L2.8208724,14.3380228 L11.8161423,19.3949074 C12.2746328,19.7880127 12.8711914,20.0046217 13.4990107,20.0046217 C14.12683,20.0046217 14.7233886,19.7880127 15.181879,19.3949074 L24.1641236,14.3460454 L24.1771489,14.3380228 L24.2370653,14.281865 C25.143626,13.4448449 25.2530385,12.0890329 24.4923611,11.1263262 C24.4480751,11.0701683 24.3647132,11.0594716 24.310007,11.1076069 L23.432102,11.8403337 C23.3773957,11.8857948 23.3669755,11.9713688 23.4138666,12.0275267 C23.6900028,12.3751708 23.6665573,12.8431532 23.3591603,13.1694038 L14.389941,18.2102433 L14.3769157,18.2182658 L14.3169993,18.2744237 C13.8741392,18.6835741 13.1238821,18.6835741 12.681022,18.2744237 L12.6211057,18.2182658 L3.64146609,13.1694038 C3.33406909,12.8431532 3.31062356,12.3751708 3.58675985,12.0275267 C3.63104586,11.9713688 3.62323068,11.8857948 3.56852443,11.8403337 L2.69061943,11.1076069 C2.63591318,11.0621457 2.55255129,11.0701683 2.50826528,11.1263262 C1.74237783,12.0863587 1.85439538,13.4448449 2.76095603,14.281865 Z M24.310007,16.1029852 L23.432102,16.835712 C23.3773957,16.8811732 23.3669755,16.9667471 23.4138666,17.022905 C23.6900028,17.3705491 23.6665573,17.8385315 23.3591603,18.1647821 L14.389941,23.2056216 L14.3769157,23.2136442 L14.3169993,23.2698021 C13.8741392,23.6789524 13.1238821,23.6789524 12.681022,23.2698021 L12.6211057,23.2136442 L3.64146609,18.1647821 C3.33406909,17.8385315 3.31062356,17.3705491 3.58675985,17.022905 C3.63104586,16.9667471 3.62323068,16.8811732 3.56852443,16.835712 L2.69061943,16.1029852 C2.63591318,16.0575241 2.55255129,16.0655466 2.50826528,16.1217045 C1.74758795,17.0817371 1.85700044,18.4402232 2.76356109,19.2772433 L2.82347746,19.3334012 L11.8187474,24.3902857 C12.2772378,24.783391 12.8737964,25 13.5016157,25 C14.129435,25 14.7259936,24.783391 15.1844841,24.3902857 L24.1667287,19.3414237 L24.179754,19.3334012 L24.2396704,19.2772433 C25.146231,18.4402232 25.2556435,17.0844112 24.4949662,16.1217045 C24.4480751,16.0655466 24.3673183,16.0548499 24.310007,16.1029852 Z M3.2246566,9.79993024 L4.64441394,10.5968375 L12.2147164,14.8514664 C12.9232926,15.5066419 14.0747288,15.5066419 14.7833049,14.8514664 L22.3536074,10.5968375 L23.7733647,9.79993024 C23.8410963,9.73842397 23.9010127,9.67156934 23.9557189,9.60204052 C24.4741257,8.9468651 24.4168144,8.02159695 23.7733647,7.4279278 L14.7833049,2.49138157 C14.0747288,1.83620614 12.9232926,1.83620614 12.2147164,2.49138157 L3.2246566,7.4279278 C2.583812,8.02159695 2.52389563,8.94419091 3.04230244,9.60204052 C3.09961375,9.67156934 3.15692505,9.73842397 3.2246566,9.79993024 Z" id="形状" fill="#02A162"></path>
            </g>
        </g>
    </g>
</svg>