<?xml version="1.0" encoding="UTF-8"?>
<svg width="28px" height="28px" viewBox="0 0 28 28" version="1.1" xmlns="http://www.w3.org/2000/svg" xmlns:xlink="http://www.w3.org/1999/xlink">
    <!-- Generator: Sketch 63.1 (92452) - https://sketch.com -->
    <title>bidding_icon3</title>
    <desc>Created with Sketch.</desc>
    <g id="后台" stroke="none" stroke-width="1" fill="none" fill-rule="evenodd">
        <g id="4.2.3招标管理-报名信息查询-班组详情" transform="translate(-318.000000, -337.000000)" fill-rule="nonzero">
            <g id="bidding_icon3" transform="translate(318.000000, 337.000000)">
                <rect id="矩形" fill="#02B173" x="0" y="0" width="28" height="28" rx="4"></rect>
                <path d="M16.5799629,15.3427647 L19.7007854,18.9609412 C20.0166993,19.3272395 20.0891052,19.8427263 19.8861963,20.2809572 C19.6832875,20.7191881 19.2421875,21 18.7566641,21 L9.24333594,21 C8.75781246,21 8.31671253,20.7191881 8.11380366,20.2809572 C7.9108948,19.8427263 7.98330065,19.3272395 8.2992146,18.9609412 L11.4204516,15.3431765 C11.7880704,15.5655294 12.1871875,15.7413529 12.609514,15.8632353 L9.24333594,19.7647059 L13.3783222,19.7642941 L13.3783222,17.2941177 L14.6216778,17.2941177 L14.6216778,19.7642941 L18.7566641,19.7647059 L15.390486,15.8632353 C15.808294,15.7424785 16.208238,15.567478 16.5799629,15.3427647 L16.5799629,15.3427647 Z M14,7 C16.2890176,7 18.1445186,8.84347058 18.1445186,11.1176471 C18.1445186,13.3918236 16.2890176,15.2352941 14,15.2352941 C11.7109824,15.2352941 9.85548136,13.3918235 9.85548136,11.1176471 C9.85548136,8.8434706 11.7109824,7 14,7 Z M14,8.23529412 C12.3977319,8.23529412 11.0988369,9.52576748 11.0988369,11.1176471 C11.0988369,12.7095266 12.3977319,14 14,14 C15.6022681,14 16.9011631,12.7095266 16.9011631,11.1176471 C16.9011631,9.52576748 15.6022681,8.23529412 14,8.23529412 Z" id="形状" fill="#FFFFFF"></path>
            </g>
        </g>
    </g>
</svg>