<?xml version="1.0" encoding="UTF-8"?>
<svg width="14px" height="14px" viewBox="0 0 14 14" version="1.1" xmlns="http://www.w3.org/2000/svg" xmlns:xlink="http://www.w3.org/1999/xlink">
    <!-- Generator: Sketch 63.1 (92452) - https://sketch.com -->
    <title>icon_calendar</title>
    <desc>Created with Sketch.</desc>
    <g id="后台" stroke="none" stroke-width="1" fill="none" fill-rule="evenodd">
        <g id="3.2.3工资管理-工资审核-员工列表" transform="translate(-671.000000, -199.000000)" fill="#545454" fill-rule="nonzero">
            <g id="日历1" transform="translate(671.000000, 199.000000)">
                <path d="M14,12.1348227 L14,2.79853743 C14,1.77059248 13.1644391,1.00354054 12.1336816,1.00354056 L10.9833355,1.00354056 L10.9833194,0.192464445 C10.9833194,0.0868701712 10.8946974,0 10.7853744,0 L10.211453,0 C10.0996548,0 10.013524,0.0861630023 10.013524,0.192464445 L10.01354,1.00354056 L3.95605217,1.00354056 L3.95603611,0.192464445 C3.95603611,0.0868701712 3.86741407,0 3.75810712,0 L3.22063711,0 C3.10883897,0 3.02270812,0.0861630023 3.02270812,0.192464445 L3.02272419,1.00354056 L1.86635059,1.00354056 C0.833857223,1.00354056 0,1.76842274 0,2.79853743 L0,12.1348066 C0,13.1627516 0.835576935,14 1.86633452,14 L12.1336816,14 C13.1661589,14 14,13.1649374 14,12.1348227 Z M1,2.99842435 C1,2.44636353 1.41199854,2 1.92274067,2 L3.00172148,2 L3.00172148,2.7937973 C3.00172148,2.9069337 3.08936991,3 3.19747603,3 L3.79531556,3 C3.90588548,3 3.99107011,2.90769136 3.99107011,2.7937973 L3.99107011,2 L10.0012042,2 L10.0012042,2.7937973 C10.0012042,2.9069337 10.0888526,3 10.1969587,3 L10.7942265,3 C10.9048123,3 10.9899969,2.90769136 10.9899969,2.7937973 L10.9899969,2 L12.0772593,2 C12.586094,2 13,2.44849883 13,2.99842435 L13,4 L1,4 L1,2.99842435 Z M12.0772618,13 L1.92273823,13 C1.41390492,13 1,12.6013332 1,12.1125091 L1,5 L13,5 L13,12.1125091 C13,12.6032466 12.5880026,13 12.0772618,13 Z M7.0739868,11.0622199 L8.00056058,11.0622199 L8.00056058,6.04661839 L7.31958029,6.04661839 C7.2888811,6.21042733 7.22362935,6.74617019 7.12385699,6.85865391 C7.02408463,6.97124956 6.90379819,7.06336311 6.76314155,7.13494658 C6.62235701,7.20665795 6.49042782,7.24867307 6.31654571,7.27937226 C6.14255168,7.31007145 6.18419511,7.36051699 6,7.36051699 L6,8.05123267 L7.01666818,8.05123267 L7.01666818,11.0622199 L7.0739868,11.0622199 Z" id="icon_calendar"></path>
            </g>
        </g>
    </g>
</svg>