<?xml version="1.0" encoding="UTF-8"?>
<svg width="16px" height="16px" viewBox="0 0 16 16" version="1.1" xmlns="http://www.w3.org/2000/svg" xmlns:xlink="http://www.w3.org/1999/xlink">
    <!-- Generator: Sketch 63.1 (92452) - https://sketch.com -->
    <title>icon-bell</title>
    <desc>Created with Sketch.</desc>
    <g id="后台" stroke="none" stroke-width="1" fill="none" fill-rule="evenodd">
        <g id="1.1.1项目管理-项目信息维护" transform="translate(-1678.000000, -26.000000)" fill="#000000">
            <g id="编组-12" transform="translate(1677.000000, 18.000000)">
                <g id="icon-bell" transform="translate(0.000000, 6.000000)">
                    <g>
                        <rect id="矩形" fill-rule="nonzero" opacity="0" x="0" y="0" width="18" height="18"></rect>
                        <path d="M16.3125,14.625 L1.6875,14.625 C1.378125,14.625 1.125,14.371875 1.125,14.0625 C1.125,13.753125 1.378125,13.5 1.6875,13.5 L16.3125,13.5 C16.621875,13.5 16.875,13.753125 16.875,14.0625 C16.875,14.371875 16.621875,14.625 16.3125,14.625 Z M14.625,14.625 L3.375,14.625 C3.065625,14.625 2.8125,14.371875 2.8125,14.0625 L2.8125,8.4375 C2.8125,5.034375 5.596875,2.25 9,2.25 C12.403125,2.25 15.1875,5.034375 15.1875,8.4375 L15.1875,14.0625 C15.1875,14.371875 14.934375,14.625 14.625,14.625 Z M3.9375,13.5 L14.0625,13.5 L14.0625,8.4375 C14.0625,5.653125 11.784375,3.375 9,3.375 C6.215625,3.375 3.9375,5.653125 3.9375,8.4375 L3.9375,13.5 Z M9,17.875 C7.453125,17.875 6.1875,16.609375 6.1875,15.0625 C6.1875,14.753125 6.440625,14.5 6.75,14.5 C7.059375,14.5 7.3125,14.753125 7.3125,15.0625 C7.3125,15.990625 8.071875,16.75 9,16.75 C9.928125,16.75 10.6875,15.990625 10.6875,15.0625 C10.6875,14.753125 10.940625,14.5 11.25,14.5 C11.559375,14.5 11.8125,14.753125 11.8125,15.0625 C11.8125,16.609375 10.546875,17.875 9,17.875 Z" id="形状" fill-rule="nonzero"></path>
                    </g>
                </g>
            </g>
        </g>
    </g>
</svg>