<?xml version="1.0" encoding="UTF-8"?>
<svg width="20px" height="20px" viewBox="0 0 20 20" version="1.1" xmlns="http://www.w3.org/2000/svg" xmlns:xlink="http://www.w3.org/1999/xlink">
    <!-- Generator: Sketch 63.1 (92452) - https://sketch.com -->
    <title>nav_icon1_checked</title>
    <desc>Created with Sketch.</desc>
    <g id="nav_icon1_checked" stroke="none" stroke-width="1" fill="none" fill-rule="evenodd">
        <g id="项目管理" transform="translate(1.000000, 2.000000)" fill-rule="nonzero">
            <path d="M1.66966063,3.07142853 C0.766223152,3.07142853 0.0337677901,3.80388388 0.0337677901,4.70732136 L0.0337677901,14.8641069 C0.0337677901,15.7673661 0.766044571,16.4998018 1.66948208,16.5 L12.2925001,16.5 C13.1960073,16.5 13.9285716,15.7676143 13.9285716,14.8641072 L13.9285716,4.70732165 C13.9285716,3.80406273 13.1962948,3.07162524 12.2928573,3.07142853 L1.66966063,3.07142853 Z M11.1275794,4.93343135 C11.6206901,4.93343135 12.0204365,5.33317777 12.0204365,5.82628847 L12.0204365,6.92857132 L1.98653883,6.92857132 L1.98653883,5.82628847 C1.98653883,5.3331779 2.38628526,4.93343135 2.87939598,4.93343135 L11.1275794,4.93343135 Z M3.02523842,15.0100947 C2.53212766,15.0100947 2.02723763,14.814539 2.02723763,14.3214283 L2.02723763,9 L12.0693616,9 L12.0693616,14.3214283 C12.0693616,14.814539 11.5795848,15.0100947 11.086474,15.0100947 L3.02523842,15.0100947 Z M6.80714291,11.0714284 L9.90714291,11.0714284 C10.2071429,11.0714284 10.3571429,11.4047617 10.3571429,12.0714284 C10.3571429,12.738095 10.2071429,13.0714284 9.90714291,13.0714284 L6.80714291,13.0714284 C6.50714291,13.0714284 6.35714291,12.738095 6.35714291,12.0714284 C6.35714291,11.4047617 6.50714291,11.0714284 6.80714291,11.0714284 Z M4.07142857,13.0714285 C4.62371468,13.0714285 5.07142857,12.6237118 5.07142857,12.0714285 C5.07142857,11.5191424 4.62371468,11.0714285 4.07142857,11.0714285 C3.51914245,11.0714285 3.07142857,11.5191424 3.07142857,12.0714285 C3.07142857,12.6237146 3.51914523,13.0714285 4.07142857,13.0714285 Z" id="形状" fill="#FFFFFF"></path>
            <path d="M3.73419109,4.08562073e-14 C3.37914999,4.08562073e-14 3.07179925,0.290705321 3.07179925,0.931674072 C3.07179925,1.63589284 3.35924461,1.97201181 3.71428568,1.97201181 L14.3214286,1.97201181 C14.8145393,1.97201179 15.1026035,2.11379969 15.1026035,2.60691039 L15.1026035,13.0277554 C15.1026036,13.3827966 15.6875026,14.0089191 16.0425419,14.0089191 C16.3975829,14.0089191 16.9891074,13.640755 16.9891074,13.285714 L17.0090127,1.63589274 C17.0090127,1.18426328 16.8259436,0.775339176 16.5299447,0.479297886 C16.2339458,0.183256596 15.3359098,4.08562073e-14 14.8841911,4.08562073e-14 L3.73419109,4.08562073e-14 Z" id="路径" fill="#B9F0CF"></path>
        </g>
    </g>
</svg>