<?xml version="1.0" encoding="UTF-8"?>
<svg width="20px" height="20px" viewBox="0 0 20 20" version="1.1" xmlns="http://www.w3.org/2000/svg" xmlns:xlink="http://www.w3.org/1999/xlink">
    <!-- Generator: Sketch 63.1 (92452) - https://sketch.com -->
    <title>nav_icon5</title>
    <desc>Created with Sketch.</desc>
    <g id="nav_icon5" stroke="none" stroke-width="1" fill="none" fill-rule="evenodd">
        <g id="系统服务" transform="translate(1.000000, 2.000000)" fill="#DDDFE7" fill-rule="nonzero">
            <path d="M16.4666704,13.98257 L2.53332962,13.98257 C1.10832823,13.98257 0,12.4770644 0,11.0733982 L0,2.49541033 C0,1.09173859 1.1083338,0 2.53332962,0 L16.4666704,0 C17.8916718,0 19,1.09174408 19,2.49541033 L19,11.0733982 C19,12.4770699 17.8916662,13.98257 16.4666704,13.98257 Z M2.93793097,2.06421884 C2.38376315,2.06421884 1.98793004,2.45412705 1.98793004,3 L1.98793004,11.0733799 C1.98793004,11.6192529 2.38376315,12.0091611 2.93793097,12.0091611 L16.071264,12.0091611 C16.6254318,12.0091611 17.0212649,11.6192529 17.0212649,11.0733799 L17.0212649,3 C17.0212649,2.45412705 16.6254318,2.06421884 16.071264,2.06421884 L2.93793097,2.06421884 Z M6.01666017,17 C5.54165971,17 5,16.7169452 5,15.9979681 C5,15.2789909 5.12214822,14.9959361 6.01666017,14.9959361 L8.058,14.995 L8.05882273,12.8000075 C8.05882273,12.3333411 8.54586351,12.0082416 9.01645159,12.0082416 C9.48703968,12.0082416 9.97408046,12.3333411 9.97408046,12.8000075 L9.974,14.995 L12.1745203,14.9959361 C13.0073577,14.9959361 13.0073577,15.4544243 13,15.9979681 C12.9926423,16.5415119 12.6495208,17 12.1745203,17 L6.01666017,17 Z" id="形状"></path>
        </g>
        <path d="M13.6078415,7.9555548 C13.5294101,7.79999938 13.4509789,7.72222158 13.2941155,7.64444323 L12.7450954,7.56666543 L13.0588214,7.09999899 C13.1372529,6.94444357 13.1372529,6.78888742 13.0588214,6.63333255 C13.0588214,6.55555475 12.9019588,6.32222098 12.5098014,6.01111123 C12.1960754,5.69999966 11.9607814,5.54444479 11.8823512,5.46666644 C11.7254886,5.38888864 11.5686252,5.38888864 11.4117631,5.46666644 L10.9411751,5.77777801 L10.8627437,5.23333322 C10.9411751,5.23333322 10.7843122,5.0777778 10.6274496,5.0777778 C10.6274496,5.0777778 10.3137236,5 9.84313553,5 C9.29411548,5 8.98039132,5.0777778 8.98039132,5.0777778 C8.82352869,5.1555556 8.74509728,5.23333322 8.66666532,5.38888937 L8.58823391,5.93333416 L8.19607779,5.62222259 C8.03921515,5.54444479 7.88235178,5.54444479 7.7254897,5.62222259 C7.64705829,5.62222259 7.4117637,5.77777801 7.09803954,6.16666738 C6.70588341,6.47777895 6.54901949,6.71111217 6.54901949,6.71111217 C6.47058808,6.86666759 6.47058808,7.02222374 6.54901949,7.17777861 L6.86274549,7.64444505 L6.39215741,7.72222286 C6.23529478,7.72222286 6.07843141,7.87777828 6.07843141,8.03333442 C6.07843141,8.03333442 6,8.34444599 6,8.88888896 C6,9.3555554 6.07843141,9.66666697 6.07843141,9.66666697 C6.15686282,9.82222239 6.23529404,9.90000019 6.39215741,9.97777854 L6.94117745,10.0555563 L6.62745145,10.5222228 C6.54902004,10.6777782 6.54902004,10.8333344 6.62745145,10.9888892 C6.62745145,11.066667 6.78431409,11.3000008 7.1764715,11.6111105 C7.4901975,11.9222221 7.72549154,12.077777 7.80392166,12.1555553 C7.9607843,12.2333331 8.11764766,12.2333331 8.27450975,12.1555553 L8.74509783,11.8444438 L8.82352924,12.3888885 C8.82352924,12.544444 8.98039187,12.7000001 9.13725524,12.7000001 C9.13725524,12.7000001 9.45098124,12.7777779 10,12.7777779 C10.4705875,12.7777779 10.7843135,12.7000001 10.7843135,12.7000001 C10.9411762,12.6222223 11.0196076,12.5444447 11.0980395,12.3888885 L11.1764709,11.8444438 L11.647059,12.1555553 C11.8039217,12.2333331 11.960785,12.2333331 12.1176471,12.1555553 C12.1960785,12.1555553 12.4313731,12 12.7450973,11.6111105 C13.1372534,11.2222224 13.2941173,10.9888892 13.2941173,10.9888892 C13.3725487,10.8333338 13.3725487,10.6777777 13.2941173,10.5222228 L12.9803913,10.0555563 L13.5294114,9.97777854 C13.686274,9.97777854 13.8431374,9.82222312 13.8431374,9.66666697 C13.9215688,9.43333375 14,9.12222218 14,8.88888896 C13.686274,8.42222252 13.6078439,8.11111095 13.6078439,7.95555608 L13.6078415,7.9555548 Z M9.35803398,10.3151562 C9.30557662,10.3151562 9.25311939,10.263136 9.25311939,10.263136 C9.25311939,10.263136 9.20066203,10.2111158 9.09574744,10.2111158 C8.99083285,10.1590956 8.88591777,10.1590956 8.83346127,10.263136 L8.57117511,10.4712171 C8.51871775,10.4191969 8.46626052,10.3671768 8.36134543,10.3151566 C8.30888808,10.2631364 8.25643084,10.1590961 8.20397349,10.1070755 L8.41380316,9.8469751 C8.46626052,9.74293482 8.46626052,9.63889405 8.46626052,9.5868747 C8.41380316,9.48283441 8.36134593,9.43081421 8.36134593,9.43081421 C8.36134591,9.43081421 8.30888857,9.378794 8.30888857,9.27475372 C8.25643121,9.17071344 8.20397398,9.11869323 8.0990589,9.11869323 L7.78431501,9.06667303 L7.78431501,8.80657262 L7.78431501,8.54647221 L8.0990589,8.49445201 C8.20397349,8.49445201 8.25643084,8.39041172 8.30888857,8.33839152 C8.30888857,8.28637132 8.36134593,8.23435124 8.36134593,8.18233103 C8.36134593,8.18233103 8.41380328,8.13031083 8.41380328,8.07829075 C8.46626064,7.97425046 8.46626064,7.87020969 8.41380328,7.81819034 L8.20397361,7.55808993 C8.25643097,7.50606973 8.3088882,7.45404965 8.36134556,7.35000888 C8.41380291,7.29798867 8.5187175,7.24596859 8.57117523,7.19394839 L8.8334614,7.40202944 C8.88591875,7.45404965 9.04329107,7.45404965 9.09574756,7.45404965 L9.20066215,7.35000936 C9.20066215,7.35000936 9.25311951,7.29798916 9.3580341,7.29798916 C9.46294869,7.24596896 9.51540604,7.19394887 9.51540604,7.0899081 L9.5678634,6.77778713 L10.092437,6.77778713 L10.1448943,7.0899081 C10.1448943,7.19394839 10.2498089,7.24596859 10.3022663,7.29798916 C10.3547236,7.35000936 10.4071809,7.35000936 10.4071809,7.35000936 C10.4071809,7.35000936 10.4596382,7.40202957 10.5645528,7.40202957 C10.6694674,7.45404977 10.7743825,7.45404977 10.826839,7.35000936 L11.0891251,7.14192831 C11.1415825,7.19394851 11.1940397,7.24596859 11.2989548,7.29798879 C11.3514122,7.350009 11.4038694,7.45404928 11.4563268,7.50606985 L11.2464971,7.76617026 C11.1940397,7.87021054 11.1940397,7.97425132 11.1940397,8.02627067 C11.2464971,8.07829087 11.2464971,8.13031095 11.2464971,8.13031095 C11.2464971,8.13031096 11.2989544,8.18233115 11.2989544,8.28637144 C11.3514118,8.39041172 11.403869,8.44243193 11.5087841,8.44243193 L11.823528,8.49445213 L11.823528,9.01465417 L11.5087841,9.06667437 C11.4038695,9.06667437 11.3514122,9.17071465 11.2989544,9.22273486 C11.2989544,9.27475506 11.2464971,9.32677514 11.2464971,9.32677514 C11.2464971,9.32677514 11.1940397,9.43081543 11.1940397,9.48283563 C11.1415824,9.58687592 11.1415824,9.69091669 11.2464971,9.74293604 L11.4563268,10.0030364 C11.4038694,10.0550566 11.3514122,10.1070767 11.2989548,10.2111175 C11.2464975,10.2631377 11.1940402,10.3151578 11.0891251,10.367178 L10.826839,10.1590969 C10.7743816,10.1070767 10.6170093,10.1070767 10.5645528,10.1070767 C10.5120954,10.1590969 10.4596382,10.1590969 10.4596382,10.1590969 C10.4596382,10.1590969 10.4071809,10.2111171 10.3022663,10.2111171 C10.1973517,10.2631373 10.1448943,10.3151574 10.1448943,10.4191982 L10.092437,10.7313192 L9.5678634,10.7313192 L9.51540604,10.4191982 C9.51540604,10.4191982 9.46294869,10.3151579 9.3580341,10.3151579 L9.35803398,10.3151562 Z" id="形状" fill="#B9F0CF" fill-rule="nonzero"></path>
    </g>
</svg>