<?xml version="1.0" encoding="UTF-8"?>
<svg width="20px" height="20px" viewBox="0 0 20 20" version="1.1" xmlns="http://www.w3.org/2000/svg" xmlns:xlink="http://www.w3.org/1999/xlink">
    <!-- Generator: Sketch 63.1 (92452) - https://sketch.com -->
    <title>nav_icon3</title>
    <desc>Created with Sketch.</desc>
    <g id="nav_icon3" stroke="none" stroke-width="1" fill="none" fill-rule="evenodd">
        <g id="员工工资" transform="translate(0.000000, 2.000000)" fill-rule="nonzero">
            <path d="M3.51732419,0 C1.57674068,0.00622543914 0.00534807423,1.58865449 0,3.54204066 L0,13.4587133 C0.00576293985,15.4117918 1.57702389,16.9937667 3.51730664,17 L15.4819195,17 C17.4228019,16.9941893 18.9946344,15.4116377 19,13.4579593 L19,3.5420482 C18.994639,1.58835324 17.4227967,0.00581166431 15.4819193,0 L3.51732419,0 Z M14.8219363,2.08438873 C15.9865644,2.08771084 16.9297518,3.03745357 16.932637,4.20976188 L16.932637,4.95870817 L2.0272298,4.95870817 L2.0272298,4.20976188 C2.02970786,3.03772576 2.97210434,2.08777405 4.13643514,2.0836303 L14.8219363,2.08438873 Z M4.2210097,14.9324902 C3.0563817,14.9291681 2.11319429,13.9794253 2.11030916,12.807117 L2.11030916,7.02325241 L17.0068578,7.02325241 L17.0068578,12.8086399 C17.0035672,13.9806453 16.0605126,14.9299435 14.8961748,14.933255 L4.2210097,14.9324902 Z" id="形状" fill="#DDDFE7"></path>
            <path d="M4.01762109,10.9979398 L3.9964463,13.0144221 C3.99725094,13.4101474 4.10779056,13.9991596 4.48585891,14 C4.86364137,13.9987389 4.9744686,13.4098479 4.97527151,13.0144221 L4.9964463,10.9979398 C4.99564223,10.6025098 4.86364136,10.0012579 4.48585891,10 C4.10779226,10.0008414 4.01842401,10.6022165 4.01762109,10.9979398 Z" id="形状结合" fill="#B9F0CF"></path>
            <path d="M6.02117479,10.9979398 L6,13.0144221 C6.00080464,13.4101474 6.11134425,13.9991596 6.48941261,14 C6.86719507,13.9987389 6.97802229,13.4098479 6.97882521,13.0144221 L7,10.9979398 C6.99919593,10.6025098 6.86719506,10.0012579 6.48941261,10 C6.11134596,10.0008414 6.02197771,10.6022165 6.02117479,10.9979398 Z" id="形状结合备份" fill="#B9F0CF"></path>
            <path d="M8.02117479,10.9979398 L8,13.0144221 C8.00080464,13.4101474 8.11134425,13.9991596 8.48941261,14 C8.86719507,13.9987389 8.97802229,13.4098479 8.97882521,13.0144221 L9,10.9979398 C8.99919593,10.6025098 8.86719506,10.0012579 8.48941261,10 C8.11134596,10.0008414 8.02197771,10.6022165 8.02117479,10.9979398 Z" id="形状结合备份-2" fill="#B9F0CF"></path>
        </g>
    </g>
</svg>