<?xml version="1.0" encoding="UTF-8"?>
<svg width="20px" height="20px" viewBox="0 0 20 20" version="1.1" xmlns="http://www.w3.org/2000/svg" xmlns:xlink="http://www.w3.org/1999/xlink">
    <!-- Generator: Sketch 63.1 (92452) - https://sketch.com -->
    <title>nav_icon4_checked</title>
    <desc>Created with Sketch.</desc>
    <g id="nav_icon4_checked" stroke="none" stroke-width="1" fill="none" fill-rule="evenodd">
        <g id="新闻" transform="translate(1.000000, 1.000000)" fill-rule="nonzero">
            <path d="M4.909095,15.1488708 C4.909095,15.4352337 4.99910196,15.7109616 4.909095,15.967053 L15.155569,15.967053 C15.6074372,15.967053 15.9737512,15.600741 15.9737512,15.1488708 L15.9737512,1.97794828 L4.909095,1.97794828 L4.909095,15.1488708 Z M3.05337392,0 L18,0 L18,15.5454554 C18,16.901062 16.901062,18 15.5454554,18 L2.45454468,18 C1.09893796,18 0,16.901062 0,15.5454554 L0,8.06925346 L3.05337392,8.06925346 L3.05337392,0 Z M2.09570585,15.0862898 C2.09570594,15.538158 2.00469028,16.0039864 2.55697579,16.0039864 C3.10913942,16.0039864 2.97937023,15.5380602 2.97954132,15.0862898 L2.97954132,10 L2.0957082,10.0002512 L2.09570585,15.0862898 Z" id="形状" fill="#FFFFFF"></path>
            <path d="M14,9.33333594 L14,11 L7,11 L7,9.33333594 L14,9.33333594 Z M14,6 L14,7.66666406 L7,7.66666406 L7,6 L14,6 Z" id="形状结合" fill="#B9F0CF"></path>
        </g>
    </g>
</svg>