<?xml version="1.0" encoding="UTF-8"?>
<svg width="14px" height="14px" viewBox="0 0 14 14" version="1.1" xmlns="http://www.w3.org/2000/svg" xmlns:xlink="http://www.w3.org/1999/xlink">
    <!-- Generator: Sketch 63.1 (92452) - https://sketch.com -->
    <title>nav_dropdown</title>
    <desc>Created with Sketch.</desc>
    <g id="nav_dropdown" stroke="none" stroke-width="1" fill="none" fill-rule="evenodd">
        <g id="下拉备份" transform="translate(0.000000, 3.000000)" fill="#7EEBC7" fill-rule="nonzero">
            <path d="M12.4125197,0.68125952 C12.2062694,0.47500928 11.9312691,0.4062592 11.6562688,0.4062592 L1.3437568,0.47500928 C1.06875648,0.47500928 0.79375616,0.54375936 0.58750592,0.7500096 C0.17500544,1.16251008 0.17500544,1.7812608 0.58750592,2.19376128 L5.74376192,7.35001728 C5.74376192,7.35001728 5.74376192,7.35001728 5.74376192,7.35001728 C5.74376192,7.35001728 5.74376192,7.35001728 5.74376192,7.35001728 C5.812512,7.41876736 5.95001216,7.48751744 6.01876224,7.55626752 C6.01876224,7.55626752 6.08751232,7.6250176 6.08751232,7.6250176 C6.43126272,7.76251776 6.91251328,7.69376768 7.1875136,7.41876736 L12.3437696,2.19376128 C12.8250202,1.71251072 12.7562701,1.09376 12.4125197,0.68125952 Z" id="路径"></path>
        </g>
    </g>
</svg>