<?xml version="1.0" encoding="UTF-8"?>
<svg width="20px" height="20px" viewBox="0 0 20 20" version="1.1" xmlns="http://www.w3.org/2000/svg" xmlns:xlink="http://www.w3.org/1999/xlink">
    <!-- Generator: Sketch 63.1 (92452) - https://sketch.com -->
    <title>nav_icon2__checked</title>
    <desc>Created with Sketch.</desc>
    <g id="nav_icon2__checked" stroke="none" stroke-width="1" fill="none" fill-rule="evenodd">
        <g id="用户" transform="translate(2.000000, 1.000000)" fill-rule="nonzero">
            <path d="M14,14.3619048 C14,15.4664735 12.9254844,16.0127758 11.6,16.0127758 L4.40000008,16.0127758 C3.07451749,16.0127758 2,15.4664735 2,14.3619048 C2,13.257336 3.07451749,12.3619048 4.39999998,12.3619048 L11.5999999,12.3619048 C12.9254825,12.3619048 14,13.2573344 14,14.3619048 Z M4,9.99116749 C1.79085417,9.99116749 0,12.1015977 0,14.247619 C0,16.3936464 1.79086042,18.1333333 4,18.1333333 L12,18.1333333 C14.2091457,18.1333333 16,16.3936404 16,14.247619 C16,12.1015917 14.2091394,9.99116749 12,9.99116749 L4,9.99116749 Z" id="形状" fill="#B9F0CF"></path>
            <path d="M8.0000002,-4.33431069e-14 L8.21361403,0.00466489528 C10.6917955,0.113123468 12.6666669,2.09918538 12.6666669,4.53333353 L12.6666669,4.53333353 L12.6618648,4.74084391 C12.5502163,7.14822016 10.5057409,9.06666667 8.0000002,9.06666667 C5.42266687,9.06666667 3.33333354,7.03702857 3.33333354,4.53333333 C3.33333354,2.0296381 5.42266687,-4.33431069e-14 8.0000002,-4.33431069e-14 L8.0000002,-4.33431069e-14 Z M7.83333354,2 L7.66895778,2.00531768 C6.3648689,2.0899613 5.33333354,3.17451626 5.33333354,4.5 L5.33333354,4.5 L5.33865121,4.66437576 C5.42329482,5.96846464 6.50784954,7 7.83333354,7 C9.21404604,7 10.3333335,5.8807125 10.3333335,4.5 C10.3333335,3.1192875 9.21404604,2 7.83333354,2 L7.83333354,2 Z" id="形状结合" fill="#FFFFFF"></path>
        </g>
    </g>
</svg>