<?xml version="1.0" encoding="UTF-8"?>
<svg width="10px" height="6px" viewBox="0 0 10 6" version="1.1" xmlns="http://www.w3.org/2000/svg" xmlns:xlink="http://www.w3.org/1999/xlink">
    <!-- Generator: Sketch 63.1 (92452) - https://sketch.com -->
    <title>project_pop_dropup</title>
    <desc>Created with Sketch.</desc>
    <g id="后台" stroke="none" stroke-width="1" fill="none" fill-rule="evenodd">
        <g id="1.1.2项目管理-项目信息维护-新增" transform="translate(-882.000000, -636.000000)" fill="#CDCDCD" fill-rule="nonzero">
            <g id="弹出">
                <g id="编组-9" transform="translate(428.000000, 380.000000)">
                    <g id="编组-7" transform="translate(69.000000, 92.000000)">
                        <g id="编组-6备份-2" transform="translate(0.000000, 146.000000)">
                            <g id="project_pop_dropup" transform="translate(390.000000, 21.000000) scale(-1, 1) translate(-390.000000, -21.000000) translate(385.000000, 18.000000)">
                                <path d="M5.62565523,5.73572954 L9.74039234,1.53962654 C9.99432898,1.28075855 10.0695367,0.894736842 9.93239321,0.556485481 C9.79524973,0.219156251 9.47239725,0 9.11503771,0 L0.884688533,0 C0.527309325,0 0.204329045,0.220058335 0.0672642094,0.556485481 C0.022139579,0.668313805 0,0.78561477 0,0.901983582 C0,1.13647526 0.0902197676,1.3673586 0.25919627,1.53965661 L4.37488699,5.73573956 C4.54115012,5.90523108 4.76588847,6 5.00035959,6 C5.2347324,6 5.46040471,5.90442923 5.62581253,5.73573956 L5.62565523,5.73573956 L5.62565523,5.73572954 Z" id="路径" transform="translate(5.000000, 3.000000) scale(-1, -1) translate(-5.000000, -3.000000) "></path>
                            </g>
                        </g>
                    </g>
                </g>
            </g>
        </g>
    </g>
</svg>