<?xml version="1.0" encoding="UTF-8"?>
<svg width="15px" height="14px" viewBox="0 0 15 14" version="1.1" xmlns="http://www.w3.org/2000/svg" xmlns:xlink="http://www.w3.org/1999/xlink">
    <!-- Generator: Sketch 63.1 (92452) - https://sketch.com -->
    <title>screen_btn_search</title>
    <desc>Created with Sketch.</desc>
    <g id="后台" stroke="none" stroke-width="1" fill="none" fill-rule="evenodd">
        <g id="1.1.1项目管理-项目信息维护" transform="translate(-1152.000000, -199.000000)">
            <g id="编组-9" transform="translate(259.000000, 90.000000)">
                <g id="编组-27" transform="translate(36.000000, 81.000000)">
                    <g id="编组-21" transform="translate(833.000000, 17.000000)">
                        <g id="编组-16" transform="translate(25.000000, 8.000000)">
                            <g id="screen_btn_search" transform="translate(0.000000, 4.000000)">
                                <circle id="椭圆形" stroke="#FFFFFF" stroke-width="2" cx="5" cy="5" r="5"></circle>
                                <path d="M8.9760282,9.06437532 L12.8894689,9.01269598 C13.4095052,9.00582858 13.836645,9.42183416 13.8435124,9.94187044 C13.8435986,9.94840138 13.8436169,9.95493304 13.8435673,9.96146435 C13.8395057,10.495672 13.4090255,10.9285706 12.874849,10.9356247 L8.96140832,10.987304 C8.44137204,10.9941714 8.01423222,10.5781658 8.00736482,10.0581296 C8.00727858,10.0515986 8.00726028,10.045067 8.00730994,10.0385356 C8.01137148,9.50432804 8.44185173,9.07142944 8.9760282,9.06437532 Z" id="矩形" fill="#FFFFFF" transform="translate(10.925439, 10.000000) rotate(-315.000000) translate(-10.925439, -10.000000) "></path>
                            </g>
                        </g>
                    </g>
                </g>
            </g>
        </g>
    </g>
</svg>