<?xml version="1.0" encoding="UTF-8"?>
<svg width="16px" height="16px" viewBox="0 0 16 16" version="1.1" xmlns="http://www.w3.org/2000/svg" xmlns:xlink="http://www.w3.org/1999/xlink">
    <!-- Generator: Sketch 63.1 (92452) - https://sketch.com -->
    <title>setting_info</title>
    <desc>Created with Sketch.</desc>
    <g id="后台" stroke="none" stroke-width="1" fill="none" fill-rule="evenodd">
        <g id="4.1.2招标管理-上传招标通告" transform="translate(-322.000000, -202.000000)" fill-rule="nonzero">
            <g id="编组-5" transform="translate(254.000000, 90.000000)">
                <g id="编组-2" transform="translate(42.000000, 98.000000)">
                    <g id="setting_info" transform="translate(26.000000, 14.000000)">
                        <rect id="矩形" fill="#000000" opacity="0" x="0" y="0" width="16" height="16"></rect>
                        <path d="M8,0.00696 C3.58558,0.00696 0.00696,3.58558 0.00696,8.00004 C0.00696,12.41444 3.58558,15.99304 8,15.99304 C12.41442,15.99304 15.99304,12.41442 15.99304,8.00004 C15.99304,3.58558 12.41442,0.00696 8,0.00696 Z M8,14.07474 C7.26426,14.07474 6.66782,13.45886 6.66782,12.69918 C6.66782,11.9395 7.26426,11.3236 8,11.3236 C8.7357,11.3236 9.33214,11.93948 9.33214,12.69918 C9.33214,13.45888 8.73572,14.07474 8,14.07474 Z M9.0344,9.12274 C9.0344,9.88244 8.61338,10.49828 8.09404,10.49828 L7.90598,10.49828 C7.38662,10.49828 6.96562,9.88244 6.96562,9.12274 L6.4014,3.62056 C6.4014,2.86086 6.8224,2.24506 7.34174,2.24506 L8.65826,2.24506 C9.17762,2.24506 9.59862,2.86088 9.59862,3.62056 L9.0344,9.12274 Z" id="形状" fill="#919191"></path>
                    </g>
                </g>
            </g>
        </g>
    </g>
</svg>