<?xml version="1.0" encoding="UTF-8"?>
<svg width="27px" height="27px" viewBox="0 0 27 27" version="1.1" xmlns="http://www.w3.org/2000/svg" xmlns:xlink="http://www.w3.org/1999/xlink">
    <!-- Generator: Sketch 63.1 (92452) - https://sketch.com -->
    <title>画板备份</title>
    <desc>Created with Sketch.</desc>
    <g id="画板备份" stroke="none" stroke-width="1" fill="none" fill-rule="evenodd">
        <g id="眼睛_隐藏" transform="translate(13.500000, 13.000000) scale(1, -1) translate(-13.500000, -13.000000) translate(0.000000, 3.000000)" fill="#B9BED1" fill-rule="nonzero">
            <path d="M10.665,18.4344827 L13.095,15.9206896 L13.365,15.9206896 C17.955,15.9206896 21.33,14.1051724 23.895,10.3344828 C23.085,9.2172414 22.14,8.23965519 21.195,7.40172415 L23.22,5.5862069 C24.705,6.84310345 25.92,8.51896552 27,10.3344828 C23.895,15.9206897 19.305,18.5741379 13.5,18.5741379 C12.555,18.7137931 11.61,18.5741379 10.665,18.4344827 L10.665,18.4344827 Z M3.10500002,14.5241379 C2.02500003,13.4068966 0.94500001,12.0103448 0,10.3344828 C3.10499999,4.74827587 7.69499999,2.09482758 13.5,2.09482758 L14.985,2.09482758 L12.285,4.88793105 C8.235,5.16724138 5.13000002,6.98275863 2.835,10.3344828 C3.37500001,11.1724138 4.05,12.0103448 4.72500002,12.5689655 L3.10500002,14.5241379 Z M21.195,0 L23.085,1.95517243 L6.075,19.5517241 L4.18500001,17.5965517 L21.195,0 Z" id="形状"></path>
        </g>
    </g>
</svg>